<?xml version="1.0" encoding="iso-8859-1"?>
<!-- Generator: Adobe Illustrator 19.0.0, SVG Export Plug-In . SVG Version: 6.00 Build 0)  -->
<svg version="1.1" id="Capa_1" xmlns="http://www.w3.org/2000/svg" xmlns:xlink="http://www.w3.org/1999/xlink" x="0px" y="0px"
	 viewBox="0 0 511.999 511.999" style="enable-background:new 0 0 511.999 511.999;" xml:space="preserve">
<path style="fill:#EB874B;" d="M246.663,511.999c-77.048,0-177.858-40.158-165.427-179.936
	c6.149-69.145-9.08-100.798-19.512-114.006c-2.845-3.602-0.302-8.876,4.286-8.743c20.594,0.592,60.21,6.677,79.81,42.662
	c0,0,4.639-43.434,40.79-101.929c48.433-78.368,45.124-123.98,39.625-143.165c-1.248-4.355,3.034-8.21,7.206-6.444
	C264.893,13.757,349.42,61.356,357.703,190.61c0,0,36.416-28.007,89.068-21.15c4.384,0.571,6.279,5.98,3.159,9.113
	c-14.339,14.401-40.528,53.829-29.908,144.13C428.002,390.559,417.756,511.999,246.663,511.999z"/>
<path style="fill:#FFC850;" d="M371.3,369.506c-6.403-47.608-5.207-73.959-2.956-87.875c0.754-4.659-4.464-7.856-8.285-5.086
	l-30.681,22.235c-7.116-83.192-40.077-138.159-54.452-158.57c-2.555-3.627-8.104-2.69-9.352,1.567
	c-5.059,17.262-18.958,54.964-54.035,106.039c-32.858,47.844-31.725,87.368-31.725,87.368
	c-13.646-22.415-30.023-33.965-40.187-39.418c-3.842-2.061-8.373,1.207-7.617,5.502c7.175,40.741,1.05,93.998,7.641,124.357
	c13.107,60.372,61.091,86.374,107.012,86.374C345.239,511.999,380.502,437.931,371.3,369.506z"/>
<path style="fill:#FFDC64;" d="M319.179,437.112c-0.963-6.181-7.54-31.284-8.937-52.422c-0.325-4.917-6.033-7.417-9.906-4.37
	l-14.015,11.028c0,0-12.289-45.122-28.369-72.248c-2.611-4.404-9.067-4.021-11.017,0.713c-6.708,16.285-20.966,49.197-40.092,84.017
	c-15.73,28.633-18.202,108.169,51.15,108.169C297.65,511.999,325.871,480.111,319.179,437.112z"/>
<path style="fill:#FFF082;" d="M289.01,475.375c0,11.419-13.504,20.676-30.163,20.676c-16.658,0-30.163-9.257-30.163-20.676
	s20.802-40.343,30.163-40.343C270.289,435.032,289.01,463.956,289.01,475.375z"/>
<g>
</g>
<g>
</g>
<g>
</g>
<g>
</g>
<g>
</g>
<g>
</g>
<g>
</g>
<g>
</g>
<g>
</g>
<g>
</g>
<g>
</g>
<g>
</g>
<g>
</g>
<g>
</g>
<g>
</g>
</svg>
